<svg width="1600" height="900" viewBox="0 0 1600 900" fill="none" xmlns="http://www.w3.org/2000/svg">
  <defs>
    <linearGradient id="g" x1="0" y1="0" x2="1600" y2="900" gradientUnits="userSpaceOnUse">
      <stop offset="0" stop-color="#001D3D"/>
      <stop offset="0.55" stop-color="#003876"/>
      <stop offset="1" stop-color="#0B1220"/>
    </linearGradient>
    <radialGradient id="r" cx="0" cy="0" r="1" gradientUnits="userSpaceOnUse" gradientTransform="translate(1100 220) rotate(128) scale(820 520)">
      <stop offset="0" stop-color="#3D7BFF" stop-opacity="0.25"/>
      <stop offset="1" stop-color="#3D7BFF" stop-opacity="0"/>
    </radialGradient>
  </defs>

  <rect width="1600" height="900" fill="url(#g)"/>
  <rect width="1600" height="900" fill="url(#r)"/>

  <!-- subtle grid lines (very low contrast) -->
  <g stroke="#FFFFFF" stroke-opacity="0.06">
    <path d="M0 120H1600"/>
    <path d="M0 240H1600"/>
    <path d="M0 360H1600"/>
    <path d="M0 480H1600"/>
    <path d="M0 600H1600"/>
    <path d="M0 720H1600"/>
    <path d="M0 840H1600"/>
    <path d="M160 0V900"/>
    <path d="M320 0V900"/>
    <path d="M480 0V900"/>
    <path d="M640 0V900"/>
    <path d="M800 0V900"/>
    <path d="M960 0V900"/>
    <path d="M1120 0V900"/>
    <path d="M1280 0V900"/>
    <path d="M1440 0V900"/>
  </g>
</svg>
